<svg xmlns="http://www.w3.org/2000/svg" viewBox="0 0 52.57 34.88"><defs></defs><g id="Layer_2" data-name="Layer 2"><g id="Layer_1-2" data-name="Layer 1"><path class="cls-1" d="M.26,30.55a.93.93,0,0,0,.65.27H15.53A19.21,19.21,0,0,0,15.22,34a.92.92,0,0,0,.26.65.93.93,0,0,0,.65.27H36.28a.91.91,0,0,0,.91-.88A19.7,19.7,0,0,0,37,30.82H51.66a.91.91,0,0,0,.91-.88c0-.31.2-7.69-4.43-11.92A.92.92,0,0,0,47,18c0,.05-5.43,4.09-10.44,0a.91.91,0,0,0-1.17,0,13.5,13.5,0,0,0-2.86,3.93.91.91,0,0,0-.91.11c-.22.17-5.46,4.06-10.44,0a.94.94,0,0,0-.85-.15A12.16,12.16,0,0,0,17.54,18,.92.92,0,0,0,16.37,18C16.31,18,10.93,22,5.93,18a.92.92,0,0,0-1.18,0C4.56,18.14.11,22.1,0,29.9A.94.94,0,0,0,.26,30.55ZM36.05,19.87c4.76,3.33,9.62,1,11.36,0,2.71,2.91,3.23,7.29,3.32,9.15H36.59a14.74,14.74,0,0,0-2.71-5.72A14,14,0,0,1,36.05,19.87ZM20.67,23.94c4.76,3.32,9.61,1,11.35,0,2.71,2.9,3.23,7.29,3.33,9.15H17.08A15.27,15.27,0,0,1,20.67,23.94ZM5.44,19.87c4.76,3.33,9.62,1,11.36,0a10.76,10.76,0,0,1,2.09,3.37,16.62,16.62,0,0,0-3,5.79H1.86A15.35,15.35,0,0,1,5.44,19.87Z"></path><path class="cls-1" d="M11,17.23h0a8.56,8.56,0,0,0,6.09-2.53A7,7,0,0,0,17.7,14a8.62,8.62,0,0,0,8.5,7.3h0a8.63,8.63,0,0,0,8.53-7.48,8.58,8.58,0,0,0,6.85,3.42h0A8.62,8.62,0,0,0,41.59,0a8.61,8.61,0,0,0-8.53,7.49,8.6,8.6,0,0,0-13-.9,8.29,8.29,0,0,0-.62.71A8.61,8.61,0,1,0,11,17.23ZM36.79,3.81a6.79,6.79,0,1,1,9.6,9.6,6.72,6.72,0,0,1-4.8,2h0a6.8,6.8,0,0,1-4.8-11.6ZM21.4,7.88a6.79,6.79,0,1,1,4.81,11.59h0A6.79,6.79,0,0,1,21.4,7.88ZM6.18,3.81a6.79,6.79,0,1,1,9.6,9.6,6.71,6.71,0,0,1-4.8,2h0a6.8,6.8,0,0,1-4.8-11.6Z"></path></g></g></svg>