<svg xmlns="http://www.w3.org/2000/svg" viewBox="0 0 59.41 34.53"><defs></defs><g id="Layer_2" data-name="Layer 2"><g id="Layer_1-2" data-name="Layer 1"><path class="cls-1" d="M8.15,18.66a2.41,2.41,0,0,0-1.42,3.8l-1,5.94a.86.86,0,0,0,.2.71.85.85,0,0,0,.66.31H10.7a.85.85,0,0,0,.66-.3.87.87,0,0,0,.21-.69l-.86-6.19A2.4,2.4,0,0,0,9.9,19V15.75l5.41,2.35V31.53a3,3,0,0,0,3,3H43a3,3,0,0,0,3-3V17.28l12.89-5.59a.87.87,0,0,0,.52-.84.88.88,0,0,0-.59-.8L29.51.05a.8.8,0,0,0-.59,0c-10,3.8-26.52,9.86-28,10A.87.87,0,0,0,0,10.7a.88.88,0,0,0,.51,1L8.15,15Zm-.52,9,.9-5.34a.88.88,0,0,0-.3-.82A.63.63,0,0,1,8,21a.65.65,0,0,1,1.3,0,.66.66,0,0,1-.16.43.87.87,0,0,0-.21.69l.77,5.54Zm36.62,3.86A1.25,1.25,0,0,1,43,32.78H18.31a1.25,1.25,0,0,1-1.25-1.25V18.86l12.3,5.33a.85.85,0,0,0,.35.08.89.89,0,0,0,.35-.08L44.25,18ZM3.53,11.08c6.34-2,21.56-7.7,25.71-9.27L56.11,11,29.71,22.44,12.27,14.87,27,12.93a5.38,5.38,0,0,0,2.72.64c2,0,3.56-.81,3.56-1.88s-1.53-1.88-3.56-1.88c-1.76,0-3.13.6-3.48,1.45L9.15,13.52ZM27,11.69c0-.41,1.05-1,2.69-1s2.68.6,2.68,1-1,1-2.68,1S27,12.1,27,11.69Z"></path></g></g></svg>