<svg xmlns="http://www.w3.org/2000/svg" viewBox="0 0 32.83 35.1"><defs></defs><g id="Layer_2" data-name="Layer 2"><g id="Layer_1-2" data-name="Layer 1"><path class="cls-1" d="M9.75,30.51a16.35,16.35,0,0,1-2-1c-.23-.15-.41-.26-.53-.35L7.09,29l0,0A.86.86,0,0,0,6,30.37C9.22,33,12.15,34.55,15,35a11.16,11.16,0,0,0,1.72.13,12.27,12.27,0,0,0,2.47-.26,15.86,15.86,0,0,0,3.45-1.18l.67,1a.88.88,0,0,0,.81.37.84.84,0,0,0,.7-.54l1.87-4.75a.86.86,0,0,0-.06-.75.88.88,0,0,0-.64-.42L20.87,28a.84.84,0,0,0-.82.39.86.86,0,0,0,0,.9l.53.89a10.45,10.45,0,0,1-4.41,1.48A13.28,13.28,0,0,1,9.75,30.51Zm11.9.31a.59.59,0,0,0,.18-.77l-.53-.88,4.18.47-1.55,3.93-.66-1a.57.57,0,0,0-.71-.19,15.44,15.44,0,0,1-3.62,1.3,10.53,10.53,0,0,1-3.79.12,14,14,0,0,1-5.27-2.06,14.18,14.18,0,0,0,6.39,1A11.78,11.78,0,0,0,21.65,30.82Z"></path><path class="cls-1" d="M24.61,5.62a5.28,5.28,0,0,1,.52.34l.14.09,0,0a.87.87,0,0,0,1.2-.16.85.85,0,0,0-.13-1.19c-3.21-2.67-6.15-4.18-9-4.6a11.66,11.66,0,0,0-4.2.13A15.61,15.61,0,0,0,9.76,1.44l-.68-1A.86.86,0,0,0,7.57.63L5.7,5.38a.86.86,0,0,0,.07.75.85.85,0,0,0,.64.42l5.09.57h.1a.87.87,0,0,0,.74-1.3l-.53-.89a10.5,10.5,0,0,1,4.41-1.48,13.33,13.33,0,0,1,6.41,1.13A14.84,14.84,0,0,1,24.61,5.62ZM16.1,2.33a11.78,11.78,0,0,0-5.38,2,.57.57,0,0,0-.17.77l.53.88L6.89,5.46,8.44,1.53l.66,1a.58.58,0,0,0,.72.19,15.13,15.13,0,0,1,3.62-1.3,10.53,10.53,0,0,1,3.79-.12,14.07,14.07,0,0,1,5.26,2.06A14.13,14.13,0,0,0,16.1,2.33Z"></path><path class="cls-1" d="M6,19H6a4.72,4.72,0,1,0-4.72-4.71A4.67,4.67,0,0,0,6,19ZM3.52,11.82a3.47,3.47,0,0,1,5.93,2.45A3.48,3.48,0,0,1,6,17.74H6a3.47,3.47,0,0,1-2.46-5.92Z"></path><path class="cls-1" d="M12,25.61c0-.17.11-4.15-2.4-6.45a.62.62,0,0,0-.8,0s-2.8,2.1-5.37,0a.63.63,0,0,0-.81,0A8.94,8.94,0,0,0,0,25.58.63.63,0,0,0,.18,26a.62.62,0,0,0,.44.18H11.33A.63.63,0,0,0,12,25.61ZM1.28,25a7.87,7.87,0,0,1,1.77-4.52,5.59,5.59,0,0,0,6,0A7.85,7.85,0,0,1,10.68,25Z"></path><path class="cls-1" d="M23.52,10.94a4.67,4.67,0,0,0-1.39,3.34A4.72,4.72,0,0,0,26.85,19h0a4.72,4.72,0,1,0-3.33-8Zm6.8,3.33a3.48,3.48,0,0,1-3.47,3.47h0a3.47,3.47,0,1,1,3.47-3.47Z"></path><path class="cls-1" d="M30.43,19.16a.62.62,0,0,0-.8,0s-2.8,2.1-5.38,0a.62.62,0,0,0-.8,0,8.93,8.93,0,0,0-2.58,6.44.67.67,0,0,0,.18.45.63.63,0,0,0,.45.18H32.2a.64.64,0,0,0,.63-.6C32.83,25.44,32.93,21.46,30.43,19.16ZM22.15,25a7.86,7.86,0,0,1,1.78-4.52,5.59,5.59,0,0,0,6,0A8,8,0,0,1,31.56,25Z"></path></g></g></svg>