<svg xmlns="http://www.w3.org/2000/svg" viewBox="0 0 42.64 34.52"><defs></defs><g id="Layer_2" data-name="Layer 2"><g id="Layer_1-2" data-name="Layer 1"><path class="cls-1" d="M23.63,0H.68A.72.72,0,0,0,0,.74v28a.72.72,0,0,0,.68.74h17v4.26c0,.52.59,1,1,.64l1.43-1.17,1.06-.86.33-.23a1.57,1.57,0,0,1,.19.15c.3.3.68.56,1,.83l1.56,1.28a.51.51,0,0,0,.77-.07.67.67,0,0,0,.25-.57V29.48H42a.6.6,0,0,0,.46-.2l0,0h0a.71.71,0,0,0,.19-.5V.74A.72.72,0,0,0,42,0H23.63Zm-6,28H1.35V1.48H17.63Zm6.27,4.28-2.11-1.73a.6.6,0,0,0-.68,0L19,32.27V1.48H23.9ZM25.25,1.48h16V28h-16Z"></path><path class="cls-1" d="M4.43,8.44H14c.58,0,.58-1,0-1H4.43C3.85,7.45,3.85,8.44,4.43,8.44Z"></path><path class="cls-1" d="M4.43,12.59H14c.58,0,.58-1,0-1H4.43C3.85,11.61,3.85,12.59,4.43,12.59Z"></path><path class="cls-1" d="M4.43,16.75H14c.58,0,.58-1,0-1H4.43C3.85,15.76,3.85,16.75,4.43,16.75Z"></path><path class="cls-1" d="M4.43,20.9H14c.58,0,.58-1,0-1H4.43C3.85,19.91,3.85,20.9,4.43,20.9Z"></path><path class="cls-1" d="M38.26,7.45H28.7c-.58,0-.58,1,0,1h9.56C38.84,8.44,38.84,7.45,38.26,7.45Z"></path><path class="cls-1" d="M38.26,11.61H28.7c-.58,0-.58,1,0,1h9.56C38.84,12.59,38.84,11.61,38.26,11.61Z"></path><path class="cls-1" d="M38.26,15.76H28.7c-.58,0-.58,1,0,1h9.56C38.84,16.75,38.84,15.76,38.26,15.76Z"></path><path class="cls-1" d="M38.26,19.91H28.7c-.58,0-.58,1,0,1h9.56C38.84,20.9,38.84,19.91,38.26,19.91Z"></path></g></g></svg>