<svg xmlns="http://www.w3.org/2000/svg" viewBox="0 0 35.74 35.71"><defs></defs><g id="Layer_2" data-name="Layer 2"><g id="Layer_1-2" data-name="Layer 1"><path class="cls-1" d="M1.08,34.66a1.06,1.06,0,0,0,1.08,1.05l32.53-.39a1.06,1.06,0,0,0,1.05-1.08,1,1,0,0,0-1.07-1.05l-32.54.39A1.08,1.08,0,0,0,1.08,34.66Z"></path><path class="cls-1" d="M14.86,31.19h0l4.9-.08a2.06,2.06,0,0,0,1.81-2.26l-.16-18.61a2.47,2.47,0,0,0-.69-1.73A1.62,1.62,0,0,0,19.57,8l-4.9.08a2.06,2.06,0,0,0-1.81,2.27L13,29a2.46,2.46,0,0,0,.68,1.73A1.65,1.65,0,0,0,14.86,31.19ZM14.69,9.66l4.9-.08c.06,0,.28.23.29.68L20,28.86c0,.46-.23.7-.28.7l-4.9.08c-.06,0-.28-.23-.29-.67l-.16-18.61C14.41,9.9,14.64,9.66,14.69,9.66Z"></path><path class="cls-1" d="M27.74,31.13h0l4.9-.12c1,0,1.82-1.23,1.8-2.81L34.31,2.75A3.33,3.33,0,0,0,33.5.44,1.43,1.43,0,0,0,32.44,0l-4.9.11c-1,0-1.81,1.23-1.8,2.81l.16,25.46a3.34,3.34,0,0,0,.81,2.31A1.5,1.5,0,0,0,27.74,31.13ZM27.63,1.66l4.79-.11a2,2,0,0,1,.34,1.21l.16,25.45a1.87,1.87,0,0,1-.34,1.25l-4.79.11a1.86,1.86,0,0,1-.33-1.2L27.29,2.91A2,2,0,0,1,27.63,1.66Z"></path><path class="cls-1" d="M7.89,14.53A1.65,1.65,0,0,0,6.71,14l-4.9.09h0A2.05,2.05,0,0,0,0,16.39L.11,29.05a2.5,2.5,0,0,0,.68,1.73A1.7,1.7,0,0,0,2,31.26H2l4.9-.08a2.06,2.06,0,0,0,1.81-2.26L8.57,16.26A2.42,2.42,0,0,0,7.89,14.53Zm-1,15.1L2,29.71c-.06,0-.28-.23-.29-.68L1.55,16.38c0-.47.23-.7.29-.7l4.9-.08c.06,0,.27.23.28.67l.11,12.66C7.13,29.39,6.9,29.63,6.85,29.63Z"></path></g></g></svg>