<svg xmlns="http://www.w3.org/2000/svg" viewBox="0 0 42.78 35.21"><defs></defs><g id="Layer_2" data-name="Layer 2"><g id="Layer_1-2" data-name="Layer 1"><path class="cls-1" d="M32.21,0,28.57,3.64,28,3.59c-1.31-.53-3.63-.9-6.35,1.19l-.07.06-.89.9a5.88,5.88,0,0,0-6.79-.38L10.57,2,0,12.57l4,4a10.23,10.23,0,0,0,1.91,5.49A13.78,13.78,0,0,0,7.67,24.2l2.49,2.5a2.42,2.42,0,0,0,.43,3.38,2.77,2.77,0,0,0,3.19.75s0,0,0,0c.94,1.42,1.82,2.11,2.76,2.18l1.17,1.15a3.69,3.69,0,0,0,4.36.57,2.55,2.55,0,0,0,1-1.13c2.38,2,4,2,5.83-.77h0a2.78,2.78,0,0,0,3.2-.75,2.45,2.45,0,0,0,.26-3.61s-.29-.38-.28-.38a2.21,2.21,0,0,0,1.76-.92,2.71,2.71,0,0,0-.12-3.67c.43-.44.87-.87,1.3-1.3a14.91,14.91,0,0,0,1.75-2.13,10.24,10.24,0,0,0,1.91-5.5l4-4ZM8.31,22.67a9.87,9.87,0,0,1-2.52-4.31,6.77,6.77,0,0,1-.19-1.11,7.32,7.32,0,0,1,0-.94L1.51,12.24l8.73-8.73L13,6.31l.19.18,0,0,1.36.12.09-.22c.53-.37,2.74-1.59,5.7.66L24.27,11a1,1,0,0,1,.3.74,1.07,1.07,0,0,1-.3.74l-.26.26a1,1,0,0,1-1.48,0l-4-4-1,.67,1.08,1.27.47.47-1.38,1.38a.93.93,0,0,0-.21.37l-.07.07L9.37,21A4.14,4.14,0,0,0,8.31,22.67Zm13,10.9a1.33,1.33,0,0,1-1.09.43,2.3,2.3,0,0,1-1.39-.84l-.57-.56a8.38,8.38,0,0,0,1.42-1,2.49,2.49,0,0,0,1,1.13,3.35,3.35,0,0,0,.86.34A1.08,1.08,0,0,1,21.28,33.57ZM27.05,33c-.6.71-1.29.77-2.17,0l-.4-.38a3.71,3.71,0,0,0,.54-.44c.51-.48,1-1,1.5-1.46l.16.16C27.51,31.69,27.62,32.36,27.05,33Zm4.18-2.18a1.44,1.44,0,0,1-2.37,0l-1.23-1.24,2-2,1.15,1.15C31.55,29.52,31.68,30.22,31.23,30.84Zm1.69-4.9a1.4,1.4,0,0,1-2,.74l-.21-.14c.66-.64,1.31-1.3,2-1.95A1.28,1.28,0,0,1,32.92,25.94ZM37.21,14.3a7.42,7.42,0,0,1,0,.95,7.65,7.65,0,0,1-.19,1.1,9.77,9.77,0,0,1-2.54,4.33c-1.66,1.75-3.4,3.42-5.1,5.12S25.78,29.38,24,31.16a2.38,2.38,0,0,1-1.39.84,1.3,1.3,0,0,1-1.09-.44,1.58,1.58,0,0,1-.26-1.34A3,3,0,0,1,22.1,29c.81-.83,1.64-1.65,2.46-2.48.41-.4.81-.8,1.2-1.21s1.65-1.35,1-2-1.54.55-1.92.93l-1.21,1.21c-1.89,1.84-3.76,3.72-5.7,5.51-.87.82-1.56.76-2.16.05s-.46-1.34.37-2.16l6.43-6.44a1.56,1.56,0,0,0,.62-1c0-.34-.09-.64-.44-.69a1.25,1.25,0,0,0-1.22.51l-7.58,7.57a1.43,1.43,0,0,1-2.36,0c-.45-.61-.33-1.31.41-2q3.84-3.87,7.7-7.7c.42-.42.75-.89.23-1.37S19,17.66,18.6,18c-2,2-4,4-5.93,5.94a3.83,3.83,0,0,1-.86.7,1.4,1.4,0,0,1-2-.73c-.32-.79.09-1.29.59-1.79q4.92-4.91,9.81-9.84l1.35,1.35a2.34,2.34,0,0,0,3.31,0l.26-.26a2.33,2.33,0,0,0,.08-3.23l-3-3h0l-.58-.59.79-.8a5.57,5.57,0,0,1,6.36-.59l.89-.88,2.8-2.8,8.73,8.73Z"></path></g></g></svg>