<svg xmlns="http://www.w3.org/2000/svg" viewBox="0 0 29.59 34.94"><defs><style>.cls-1{fill:#001e42;}</style></defs><g id="Layer_2" data-name="Layer 2"><g id="Layer_1-2" data-name="Layer 1"><path class="cls-1" d="M14.8,25.6c-3.4-.06-6.78-.21-10.16-.51-.44,0-.55-.17-.51-.63a8.43,8.43,0,0,1,2.49-5.22,7.35,7.35,0,0,1,2.21-1.57,4.24,4.24,0,0,1,1.11-.3,1.09,1.09,0,0,1,1.19.67q1.53,3,3.08,5.95a1.76,1.76,0,0,0,.4.5c.27.24.45.19.62-.13l3.12-6v0c.56-1.07,1.12-1.3,2.21-.78a8.36,8.36,0,0,1,4.88,6.35,4.78,4.78,0,0,1,.07.65c0,.35-.07.49-.43.52-.9.08-1.79.17-2.69.21C19.87,25.41,17.33,25.5,14.8,25.6Z"></path><path class="cls-1" d="M12.63,31.18a.88.88,0,0,1-.58,1.06,3.55,3.55,0,0,1-1.17.2c-1.68.08-3.36.11-5,.2-.76,0-1.51.19-2.26.24a6.08,6.08,0,0,1-1.35,0,2.43,2.43,0,0,1-2-1.91,6.24,6.24,0,0,1,0-3.48,2.34,2.34,0,0,1,2.63-1.89c1.43.06,2.87.18,4.3.28s3,.23,4.51.31a.88.88,0,0,1,.88.65,7.7,7.7,0,0,1,.49,3c0,.58-.17.75-.73.8l-3.25.31c-1.71.16-3.41.33-5.12.48a7,7,0,0,1-1,0,1.39,1.39,0,0,1-1.41-1.32,5.57,5.57,0,0,1,.21-1.95c.31,0,.43.05.47.37a2.09,2.09,0,0,0,.31.83.67.67,0,0,0,1,.15,1.56,1.56,0,0,0,.41-1.71A1.5,1.5,0,0,0,2.62,26.6a1.37,1.37,0,0,0-1.07.5,3.62,3.62,0,0,0-.32,3.95,2,2,0,0,0,2,1l5-.44Z"></path><path class="cls-1" d="M3.25,2.14l3.88-.73L14.06.06a6,6,0,0,1,2.31.16L26,2.07a5,5,0,0,1,.5.18l0,.08-2.79.72C21.2,3.69,18.74,4.31,16.29,5a5.62,5.62,0,0,1-3,0C10.17,4.13,7,3.33,3.91,2.51c-.24-.06-.46-.18-.69-.26Z"></path><path class="cls-1" d="M17.73,26.18,20.25,26l6.43-.43a4.66,4.66,0,0,1,1,0,2,2,0,0,1,1.42,1.16,5.73,5.73,0,0,1,.48,3,10.54,10.54,0,0,1-.21,1.37c-.09.44-.31.58-.76.53l-9.89-.95a.85.85,0,0,1-.36-.06c-.1-.06-.22-.19-.21-.28a11.17,11.17,0,0,0-.41-4.07A.33.33,0,0,1,17.73,26.18Z"></path><path class="cls-1" d="M20.35,8.09a4.65,4.65,0,0,1,.24,1.65,5.78,5.78,0,0,1-8.5,5.15,5.91,5.91,0,0,1-3-5.79c0-.22,0-.44.08-.65s.17-.39.45-.19a8.45,8.45,0,0,0,4,1.55A9,9,0,0,0,20.14,8.2l.14-.1Z"></path><path class="cls-1" d="M20.86,4.27c-.07.91-.13,1.78-.23,2.65a1.36,1.36,0,0,1-.68.94,9,9,0,0,1-5.61,1.56,9,9,0,0,1-4.25-1.28A2.05,2.05,0,0,1,9,6.34c0-.71-.12-1.42-.19-2.17l2.57.71c1.07.29,2.13.59,3.21.83a2.27,2.27,0,0,0,1-.06c1.68-.43,3.35-.88,5-1.32A1.42,1.42,0,0,1,20.86,4.27Z"></path><path class="cls-1" d="M13,32.17a7.72,7.72,0,0,0-.12-6h1.48c.78,0,1.57,0,2.35,0a.57.57,0,0,1,.61.4,8.27,8.27,0,0,1,0,5.38.41.41,0,0,1-.41.29L13,32.2Z"></path><path class="cls-1" d="M14.84,16h.51a.82.82,0,0,1,.79.68.78.78,0,0,1-.55.88.37.37,0,0,0-.27.35,3,3,0,0,0,.29,1.55l.34.62A1.76,1.76,0,0,1,16,21.72c-.28.62-.58,1.23-.87,1.85a1.19,1.19,0,0,1-.16.23c-.19.19-.32.17-.43-.07-.33-.68-.65-1.37-1-2.05a1.56,1.56,0,0,1,0-1.44c.24-.5.47-1,.68-1.53a2,2,0,0,0,.09-.55.56.56,0,0,0-.39-.62.79.79,0,0,1-.49-.84.82.82,0,0,1,.75-.7c.2,0,.4,0,.6,0Z"></path><path class="cls-1" d="M28.77,32.37a2.78,2.78,0,0,1-1.6.49c-1,0-1.92-.12-2.88-.18l-5.7-.28a2.73,2.73,0,0,1-.5,0,.43.43,0,0,1-.24-.74.87.87,0,0,1,.78-.27c.83.06,1.66.11,2.48.19l6.42.6.95.11A1.14,1.14,0,0,1,28.77,32.37Z"></path><path class="cls-1" d="M24,3.27V5.79a5.33,5.33,0,0,0,0,.8,1.26,1.26,0,0,0,.23.59.46.46,0,0,1,.07.57,1.69,1.69,0,0,0-.08,1.39c.16.56.28,1.12.42,1.68a2.5,2.5,0,0,1,.05.28c-.55,0-1.08,0-1.6,0-.07,0-.2-.18-.19-.27.05-.35.13-.7.21-1.05a9,9,0,0,0,.22-1,2.44,2.44,0,0,0-.06-.89.75.75,0,0,1,.08-.67,1.54,1.54,0,0,0,.24-.94c0-.74,0-1.47,0-2.21a1.54,1.54,0,0,1,.05-.48,1.16,1.16,0,0,1,.22-.34Z"></path><path class="cls-1" d="M17.64,34.42,16,33.58c-.5-.25-.59-.22-.87.27l-.6,1.09a1.37,1.37,0,0,1-.17-.3,3,3,0,0,0-1.48-1.92,5.23,5.23,0,0,1,.68-.07h3a.78.78,0,0,1,.78.51A2.59,2.59,0,0,1,17.64,34.42Z"></path></g></g></svg>